<?xml version="1.0" standalone="no"?>
<!DOCTYPE svg PUBLIC "-//W3C//DTD SVG 20010904//EN"
 "http://www.w3.org/TR/2001/REC-SVG-20010904/DTD/svg10.dtd">
<svg version="1.0" xmlns="http://www.w3.org/2000/svg"
 width="840.000000pt" height="593.000000pt" viewBox="0 0 840.000000 593.000000"
 preserveAspectRatio="xMidYMid meet">
<metadata>
Created by potrace 1.16, written by Peter Selinger 2001-2019
</metadata>
<g transform="translate(0.000000,593.000000) scale(0.100000,-0.100000)"
fill="#000000" stroke="none">
<path d="M1814 5510 c-12 -4 -31 -21 -43 -36 l-21 -27 0 -2488 0 -2489 29 -32
29 -33 155 -3 c127 -3 161 0 186 12 44 23 61 63 61 141 0 74 17 122 52 145 29
19 265 27 318 11 61 -18 74 -41 81 -146 4 -51 13 -102 21 -114 33 -54 -41 -51
1511 -51 997 0 1443 3 1465 11 49 17 64 51 71 155 9 138 32 154 226 154 190 0
225 -24 225 -153 0 -84 18 -131 60 -152 26 -14 59 -16 192 -13 l160 3 29 33
29 32 0 2490 0 2490 -29 32 -29 33 -160 3 c-231 5 -242 -3 -252 -182 -6 -106
-6 -109 -38 -137 l-32 -29 -151 0 c-215 0 -225 7 -231 180 -3 60 -9 103 -18
118 -36 55 43 52 -1515 52 -1558 0 -1480 3 -1514 -52 -9 -15 -16 -62 -19 -131
-4 -104 -6 -109 -34 -138 l-30 -29 -159 0 -159 0 -32 29 c-32 29 -33 31 -38
138 -8 173 -21 183 -232 182 -79 0 -153 -4 -164 -9z m3384 -474 c57 -30 57
-28 57 -531 0 -508 1 -500 -60 -530 -29 -13 -148 -15 -995 -15 -834 0 -966 2
-994 15 -62 30 -61 18 -64 495 -2 239 0 454 3 477 4 29 16 53 36 73 l31 30
979 0 c825 0 984 -2 1007 -14z m-2595 -417 c52 -27 57 -42 56 -214 0 -168 -1
-175 -49 -208 -20 -14 -49 -17 -168 -17 -219 0 -232 13 -232 225 0 214 11 225
223 225 90 0 157 -4 170 -11z m3539 -18 l33 -29 0 -166 0 -166 -28 -27 -27
-28 -166 0 -166 0 -29 33 -29 32 0 153 c1 225 2 226 227 227 l153 0 32 -29z
m-3513 -982 l31 -31 0 -159 0 -159 -29 -32 -29 -33 -150 -3 c-233 -5 -246 7
-240 245 l3 145 33 29 32 29 159 0 159 0 31 -31z m3513 2 l33 -29 3 -150 c3
-122 0 -156 -12 -181 -29 -55 -59 -63 -228 -59 l-150 3 -29 33 -29 32 0 151
c0 227 1 228 222 229 l158 0 32 -29z m-963 -124 c19 -7 44 -25 55 -40 21 -28
21 -37 21 -497 0 -460 0 -469 -21 -497 -11 -15 -36 -33 -55 -40 -49 -17 -1909
-17 -1958 0 -19 7 -44 25 -55 40 -21 28 -21 37 -21 497 0 460 0 469 21 497 11
15 36 33 55 40 49 17 1909 17 1958 0z m-2610 -823 c18 -4 45 -20 62 -36 l29
-30 0 -159 0 -159 -29 -32 -29 -33 -145 -3 c-236 -6 -250 9 -245 244 3 142 3
144 31 171 23 23 39 29 95 34 99 9 195 10 231 3z m3560 -16 c43 -27 51 -59 51
-208 0 -216 -13 -230 -225 -230 -215 0 -225 10 -225 231 l0 157 30 31 c30 29
34 30 138 34 134 5 207 0 231 -15z m-935 -713 c62 -30 61 -18 64 -495 2 -239
0 -454 -3 -477 -4 -29 -16 -53 -36 -73 l-31 -30 -979 0 c-1066 0 -1018 -3
-1049 56 -22 39 -22 937 -1 977 31 59 -13 57 1039 57 836 0 968 -2 996 -15z
m-2612 -255 c70 -20 78 -41 78 -220 0 -144 -2 -160 -21 -183 -31 -40 -79 -50
-225 -45 -192 5 -204 18 -204 228 0 168 12 198 90 223 28 10 245 7 282 -3z
m3549 -13 c42 -28 49 -57 49 -207 0 -213 -9 -223 -204 -228 -146 -5 -194 5
-225 45 -19 23 -21 39 -21 184 l0 157 30 31 c38 38 48 40 210 38 110 -2 140
-5 161 -20z"/>
</g>
</svg>
